HIERARCHY
ROOT Hips
{
    OFFSET 0.0 0.0 0.0
    CHANNELS 6 Xposition Yposition Zposition Zrotation Xrotation Yrotation
    JOINT Spine
    {
        OFFSET 0.0 5.0 0.0
        CHANNELS 3 Zrotation Xrotation Yrotation
        JOINT Chest
        {
            OFFSET 0.0 5.0 0.0
            CHANNELS 3 Zrotation Xrotation Yrotation
            JOINT Neck
            {
                OFFSET 0.0 8.0 0.0
                CHANNELS 3 Zrotation Xrotation Yrotation
                JOINT Head
                {
                    OFFSET 0.0 5.0 0.0
                    CHANNELS 3 Zrotation Xrotation Yrotation
                    End Site
                    {
                        OFFSET 0.0 3.0 0.0
                    }
                }
            }
            JOINT LeftShoulder
            {
                OFFSET -5.0 0.0 0.0
                CHANNELS 3 Zrotation Xrotation Yrotation
                JOINT LeftArm
                {
                    OFFSET 0.0 -10.0 0.0
                    CHANNELS 3 Zrotation Xrotation Yrotation
                    JOINT LeftForeArm
                    {
                        OFFSET 0.0 -10.0 0.0
                        CHANNELS 3 Zrotation Xrotation Yrotation
                        End Site
                        {
                            OFFSET 0.0 -3.0 0.0
                        }
                    }
                }
            }
        }
    }
}

MOTION
Frames: 37
Frame Time: 0.033333
960.000000 445.000000 87.963841 0.000000 0.000000 0.000000 0.000000 0.000000 0.000000 23.025492 26.606401 0.000000 180.000000 4.245100 0.000000 21.801409 1.002045 -0.000000 158.198591 -6.831164 30.000000 15.945396 -0.871472 0.000000 18.000000 0.868187 0.000000
1691.525230 140.756605 97.739839 0.000000 0.000000 0.000000 0.000000 0.000000 0.000000 -163.376529 -1.208145 4.973798 16.623471 6.712695 4.973798 -171.853121 -3.703604 3.759997 99.744051 9.229150 29.763441 -171.126653 -3.708012 -3.759997 0.673538 0.414938 0.313953
1636.048050 128.802021 105.476339 0.000000 0.000000 0.000000 0.000000 0.000000 0.000000 157.904128 20.465464 9.635073 -22.095872 -4.795133 9.635073 -171.936471 -3.900434 7.460697 -143.675701 2.817872 29.057495 -173.500805 -4.564643 -7.460697 0.570999 0.419847 0.626666
1578.156967 80.474526 121.053239 0.000000 0.000000 0.000000 0.000000 0.000000 0.000000 -139.519796 -10.873340 13.690942 40.480204 3.721404 13.690942 -174.507724 -3.516310 11.043737 119.111399 13.287257 27.893295 -173.607258 -4.256244 -11.043737 0.461920 0.376002 0.936907
960.418757 444.998421 111.710166 0.000000 0.000000 0.000000 0.000000 0.000000 0.000000 25.077893 4.449148 16.886559 180.000000 -6.744953 16.886559 23.861935 6.217953 14.452610 156.138065 -1.425316 26.289200 17.903699 3.920358 -14.452610 18.000000 -0.383433 1.243449
960.523360 444.997533 123.389592 0.000000 0.000000 0.000000 0.000000 0.000000 0.000000 25.638906 -18.764968 19.021130 180.000000 11.153325 19.021130 24.425035 4.519650 17.633558 155.574965 12.884789 24.270510 18.452907 -6.119738 -17.633558 18.000000 0.641555 1.545085
960.627905 444.996447 132.951338 0.000000 0.000000 0.000000 0.000000 0.000000 0.000000 26.219073 -34.994304 19.960535 180.000000 26.117165 19.960535 25.006291 -1.519329 20.536413 154.993709 12.719350 21.869059 19.024920 4.607993 -20.536413 18.000000 -0.618302 1.840623
1126.242828 420.359820 139.715048 0.000000 0.000000 0.000000 0.000000 0.000000 0.000000 31.410514 4.274926 19.645745 -148.589486 -0.820097 19.645745 32.280463 0.022573 23.115397 -131.603972 1.056561 19.122720 45.585331 -3.067692 -23.115397 -13.449727 0.101385 2.128896
1257.895088 650.549197 137.869790 0.000000 0.000000 0.000000 0.000000 0.000000 0.000000 25.073180 -8.686304 18.096541 -154.926820 1.563272 18.096541 46.260945 7.259282 25.329838 -154.651428 -4.919254 16.074804 27.339487 4.875486 -25.329838 -13.619892 1.117445 2.408768
960.941083 444.992008 141.939443 0.000000 0.000000 0.000000 0.000000 0.000000 0.000000 28.072001 -26.688072 15.410265 180.000000 -11.217340 15.410265 26.849221 9.324787 27.144812 153.150779 -2.101822 12.773379 20.864045 -0.034273 -27.144812 18.000000 0.407801 2.679134
1163.815842 547.748709 135.140028 0.000000 0.000000 0.000000 0.000000 0.000000 0.000000 117.162728 -2.695443 11.755705 -62.837272 -10.821478 11.755705 102.363764 7.908960 28.531695 -47.376450 -1.023726 9.270510 104.768601 1.749885 -28.531695 -6.003489 -0.020096 2.938926
961.149372 444.988063 151.010155 0.000000 0.000000 0.000000 0.000000 0.000000 0.000000 29.395983 8.812469 7.362491 180.000000 -1.210967 7.362491 28.146217 2.049967 29.468618 151.853783 0.455842 5.621439 22.170006 -3.486661 -29.468618 18.000000 -0.002039 3.187120
1136.717377 590.104480 144.402783 0.000000 0.000000 0.000000 0.000000 0.000000 0.000000 115.752126 0.924866 2.506665 -64.247874 -2.839532 2.506665 73.638146 -7.295854 29.940802 -21.842452 -0.894188 1.883716 75.369282 3.695776 -29.940802 -6.767207 -0.443592 3.422736
1163.079758 634.077559 146.233673 0.000000 0.000000 0.000000 0.000000 0.000000 0.000000 132.174340 3.753491 -2.506665 -47.825660 -8.305180 -2.506665 94.255711 4.716847 29.940802 -149.364979 -7.580775 -1.883716 30.021641 5.290008 -29.940802 -5.096180 1.577237 3.644843
961.460830 444.980668 154.779301 0.000000 0.000000 0.000000 0.000000 0.000000 0.000000 31.497152 -14.947679 -7.362491 180.000000 2.240628 -7.362491 30.152455 9.073297 29.468618 149.847545 18.472481 -5.621439 24.175589 -9.514641 -29.468618 18.000000 -0.084952 3.852566
1097.449951 565.089898 126.777562 0.000000 0.000000 0.000000 0.000000 0.000000 0.000000 -119.219568 1.789965 -11.755705 60.780432 -0.627482 -11.755705 -150.180642 -6.924201 28.531695 48.804955 0.636063 -9.270510 -149.874178 -6.516124 -28.531695 2.713854 0.589756 4.045085
1114.140244 528.302071 145.057890 0.000000 0.000000 0.000000 0.000000 0.000000 0.000000 -142.671523 0.043357 -15.410265 37.328477 5.264769 -15.410265 -177.395681 0.167052 27.144812 34.687329 4.161049 -12.773379 161.894167 0.673369 -27.144812 -0.910956 -0.025683 4.221640
1116.433640 479.728639 144.943137 0.000000 0.000000 0.000000 0.000000 0.000000 0.000000 -102.267481 15.494150 -18.096541 77.732519 -6.687403 -18.096541 -163.695626 0.630906 25.329838 38.575767 -0.975322 -16.074804 -176.001122 -0.031306 -25.329838 0.706594 -0.017720 4.381533
1135.931282 466.493965 143.732551 0.000000 0.000000 0.000000 0.000000 0.000000 0.000000 -112.868406 6.823857 -19.645745 67.131594 -13.932051 -19.645745 -159.517862 0.388814 23.115397 36.204678 -4.841583 -19.122720 -154.426613 -5.524520 -23.115397 2.428729 0.527925 4.524135
1141.618767 467.420679 158.297485 0.000000 0.000000 0.000000 0.000000 0.000000 0.000000 -123.086385 -3.504604 -19.960535 56.913615 6.040744 -19.960535 -154.885724 2.615117 20.536413 36.481623 5.004757 -21.869059 -153.965441 -6.381238 -20.536413 2.446728 0.514148 4.648882
1150.647926 469.370956 150.303292 0.000000 0.000000 0.000000 0.000000 0.000000 0.000000 -43.953779 -31.424560 -19.021130 136.046221 40.917267 -19.021130 -154.327268 -7.299236 17.633558 60.745168 13.922892 -24.270510 -153.350642 -6.682764 -17.633558 2.386216 0.608567 4.755283
1151.529922 496.420240 148.083460 0.000000 0.000000 0.000000 0.000000 0.000000 0.000000 -116.362129 1.262467 -16.886559 63.637871 8.290102 -16.886559 -149.081043 -4.669462 14.452610 35.941860 1.266331 -26.289200 -156.847177 -0.361849 -14.452610 2.056513 0.066082 4.842916
1148.402367 515.713574 129.634547 0.000000 0.000000 0.000000 0.000000 0.000000 0.000000 -118.252650 7.155713 -13.690942 61.747350 -8.358236 -13.690942 -138.082896 5.683653 11.043737 -156.312677 -7.081082 -27.893295 21.649626 8.629862 -11.043737 2.962417 0.099967 4.911436
1175.363617 533.368646 135.431631 0.000000 0.000000 0.000000 0.000000 0.000000 0.000000 -95.476638 -15.634642 -9.635073 84.523362 5.488481 -9.635073 -113.907461 -1.544267 7.460697 -155.995907 -6.180575 -29.057495 12.512064 8.706001 -7.460697 -16.748794 -0.870600 4.960574
1199.533310 485.991104 136.809738 0.000000 0.000000 0.000000 0.000000 0.000000 0.000000 -100.003195 4.163739 -4.973798 79.996805 10.128351 -4.973798 -86.083188 -4.490761 3.759997 38.843754 -2.977774 -29.763441 -106.539452 2.999823 -3.759997 6.197806 0.022079 4.990134
962.588190 444.938442 136.098770 0.000000 0.000000 0.000000 0.000000 0.000000 0.000000 39.579754 -22.813689 -0.000000 180.000000 -14.920484 -0.000000 36.680773 26.699271 0.000000 143.319227 2.567316 -30.000000 29.388385 0.473911 -0.000000 18.000000 -0.901001 5.000000
1142.094727 445.716287 134.129430 0.000000 0.000000 0.000000 0.000000 0.000000 0.000000 -140.228454 -31.202090 4.973798 39.771546 34.373296 4.973798 -156.118008 -6.492940 -3.759997 3.479189 9.048378 -29.763441 -158.005660 -6.050788 3.759997 2.150019 0.566635 4.990134
1164.005928 424.847746 129.208111 0.000000 0.000000 0.000000 0.000000 0.000000 0.000000 -84.241076 -11.354559 9.635073 95.758924 -34.733575 9.635073 -156.181584 -5.486145 -7.460697 166.928360 -9.712667 -29.057495 -154.947270 -5.963109 7.460697 2.644196 0.558894 4.960574
1124.208755 418.286655 111.143678 0.000000 0.000000 0.000000 0.000000 0.000000 0.000000 -117.427077 -10.336087 13.690942 62.572923 -17.774312 13.690942 -155.943063 -4.990409 -11.043737 14.023837 4.149627 -27.893295 -157.382674 -5.560761 11.043737 2.188130 0.505392 4.911436
962.990408 444.917226 129.706202 0.000000 0.000000 0.000000 0.000000 0.000000 0.000000 42.110883 -21.299128 16.886559 180.000000 4.507519 16.886559 37.946959 25.570832 -14.452610 142.053041 9.744444 -26.289200 29.293612 6.449842 14.452610 18.000000 0.876557 4.842916
963.090170 444.911436 108.047379 0.000000 0.000000 0.000000 0.000000 0.000000 0.000000 42.659200 22.809970 19.021130 180.000000 -0.533470 19.021130 38.119107 -14.387584 -17.633558 141.880893 0.141347 -24.270510 29.068887 -11.807655 17.633558 18.000000 0.360600 4.755283
1186.646461 396.272757 99.499135 0.000000 0.000000 0.000000 0.000000 0.000000 0.000000 -72.847419 -18.798138 19.960535 107.152581 26.483491 19.960535 -156.703603 -4.893201 -20.536413 178.447294 15.475829 -21.869059 -157.212393 -5.249717 20.536413 1.964058 0.486701 4.648882
1313.051605 426.636125 98.826490 0.000000 0.000000 0.000000 0.000000 0.000000 0.000000 90.994869 -15.927097 19.645745 -89.005131 14.222309 19.645745 -160.515303 -4.143893 -23.115397 -153.248861 0.681089 -19.122720 -159.640525 -4.251234 23.115397 0.000000 0.000000 0.000000
1347.999344 420.772226 92.368971 0.000000 0.000000 0.000000 0.000000 0.000000 0.000000 90.154351 -0.984132 18.096541 -89.845649 4.108285 18.096541 -162.053401 -4.389013 -25.329838 -136.198880 8.332880 -16.074804 -160.991694 -6.132254 25.329838 0.000000 0.000000 0.000000
1344.315948 421.031681 92.783937 0.000000 0.000000 0.000000 0.000000 0.000000 0.000000 69.757587 -10.589971 15.410265 -110.242413 0.649494 15.410265 25.616746 2.638390 -27.144812 -157.821005 -3.199185 -12.773379 17.214985 2.829699 27.144812 -16.704706 0.309352 4.221640
1350.307617 440.309436 69.151418 0.000000 0.000000 0.000000 0.000000 0.000000 0.000000 71.124018 -9.412492 11.755705 -108.875982 6.917327 11.755705 42.739987 -5.291174 -28.531695 -142.315466 1.692991 -9.270510 16.600926 -1.035855 28.531695 -16.660102 0.139553 4.045085
1357.685051 430.688889 60.657089 0.000000 0.000000 0.000000 0.000000 0.000000 0.000000 77.656077 1.565151 7.362491 -102.343923 6.640228 7.362491 39.407151 -5.984163 -29.468618 -136.343173 -3.488147 -5.621439 22.144452 4.002429 29.468618 -16.305135 -0.009492 3.852566
